<svg width="49" height="49" viewBox="0 0 49 49" fill="none" xmlns="http://www.w3.org/2000/svg">
<g clip-path="url(#clip0_189_2252)">
<path fill-rule="evenodd" clip-rule="evenodd" d="M49 24.5C49 30.9978 46.4188 37.2295 41.8241 41.8241C37.2295 46.4188 30.9978 49 24.5 49C18.0022 49 11.7705 46.4188 7.17588 41.8241C2.58124 37.2295 0 30.9978 0 24.5C0 18.0022 2.58124 11.7705 7.17588 7.17588C11.7705 2.58124 18.0022 0 24.5 0C30.9978 0 37.2295 2.58124 41.8241 7.17588C46.4188 11.7705 49 18.0022 49 24.5ZM35.2188 26.0312C35.6249 26.0312 36.0143 25.8699 36.3015 25.5828C36.5887 25.2956 36.75 24.9061 36.75 24.5C36.75 24.0939 36.5887 23.7044 36.3015 23.4172C36.0143 23.1301 35.6249 22.9688 35.2188 22.9688H17.4777L24.0529 16.3966C24.3404 16.1091 24.5019 15.7191 24.5019 15.3125C24.5019 14.9059 24.3404 14.5159 24.0529 14.2284C23.7653 13.9408 23.3754 13.7793 22.9688 13.7793C22.5621 13.7793 22.1722 13.9408 21.8846 14.2284L12.6971 23.4159C12.5545 23.5581 12.4414 23.7271 12.3642 23.9131C12.287 24.0992 12.2473 24.2986 12.2473 24.5C12.2473 24.7014 12.287 24.9008 12.3642 25.0869C12.4414 25.2729 12.5545 25.4419 12.6971 25.5841L21.8846 34.7716C22.1722 35.0592 22.5621 35.2207 22.9688 35.2207C23.3754 35.2207 23.7653 35.0592 24.0529 34.7716C24.3404 34.4841 24.5019 34.0941 24.5019 33.6875C24.5019 33.2809 24.3404 32.8909 24.0529 32.6034L17.4777 26.0312H35.2188Z" fill="black"/>
</g>
<defs>
<clipPath id="clip0_189_2252">
<rect width="49" height="49" fill="white"/>
</clipPath>
</defs>
</svg>
