<svg width="164" height="70" viewBox="0 0 164 70" fill="none" xmlns="http://www.w3.org/2000/svg">
<path fill-rule="evenodd" clip-rule="evenodd" d="M28.9002 8.90001C29.4002 10.7 29.8002 12.4 30.1002 14.2C26.5002 14 23.1002 13.9 19.5002 14C19.2002 12.3 18.7002 10.7 18.2002 9.10001C21.9002 8.90001 25.3002 8.80001 28.9002 8.90001ZM48.2002 10.5C45.1002 10.2 42.1002 9.80001 39.0002 9.60001C39.5002 11.5 39.9002 13.4 40.2002 15.4C43.2002 15.9 46.3002 16.4 49.3002 16.9C49.0002 14.7 48.6002 12.6 48.2002 10.5ZM66.8002 18.1C65.4002 15.6 63.7002 13.3 61.7002 11.2C60.0002 11.2 58.3002 11.2 56.6002 11.2C57.1002 13.5 57.4002 15.7 57.7002 18C60.8002 18.2 63.7002 18.3 66.8002 18.1Z" fill="#9FC22A"/>
<path fill-rule="evenodd" clip-rule="evenodd" d="M38.8 35.8C38.3 37.7 37.7 39.4 36.9 41.2C33.9 40.1 31 39.4 27.8 38.8C28.4 37 28.9 35.2 29.3 33.4C32.6 34 35.6 34.8 38.8 35.8ZM19.4 32.5C12.5 32.5 6.3 33.5 0 35.5C0 35.6 0 35.6 0 35.7C0 37.5 0.1 39.2 0.4 40.9C6.2 39 11.8 38.1 18.3 38C18.7 36.2 19.1 34.4 19.4 32.5ZM55.7 41.6C52.8 41 50.2 40.1 47.5 39.1C46.9 41.1 46.2 42.9 45.5 44.8C48.3 46 51 46.8 53.9 47.5C54.5 45.5 55.1 43.6 55.7 41.6Z" fill="#0072B6"/>
<path fill-rule="evenodd" clip-rule="evenodd" d="M32.4 52.9C31.8 54.9 31.3 56.9 31 59C28.3 58.2 25.7 57.6 22.9 57.2C23.3 55 23.7 53 24.2 50.8C27.1 51.4 29.6 52 32.4 52.9ZM15.6 50.4C11.5 50.5 7.9 51.1 4 52.1C5 54.1 6.2 56 7.6 57.7C9.9 57.2 12.1 57 14.6 56.8C14.9 54.7 15.2 52.5 15.6 50.4ZM50.1 58.9C46.9 58.2 44 57.2 40.9 56.1C40.4 58 39.9 59.8 39.6 61.8C42.7 62.8 45.7 63.6 48.9 64.3C49.2 62.5 49.6 60.7 50.1 58.9Z" fill="#ED771A"/>
<path fill-rule="evenodd" clip-rule="evenodd" d="M44.0998 47.8C43.2998 49.6 42.4998 51.3 41.7998 53.2C38.9998 52.1 36.2998 50.8 33.4998 49.8C34.1998 47.9 34.8998 46 35.7998 44.2C38.7998 45.2 41.1998 46.5 44.0998 47.8ZM66.5998 51.9C61.7998 52 57.4998 51.7 52.8998 50.6C52.2998 52.4 51.5998 54.2 50.9998 56.1C55.4998 57.1 59.4998 57.6 63.9998 57.6C64.8998 55.7 65.9998 53.2 66.5998 51.9ZM26.7998 41.8C23.6998 41.3 20.6998 41 17.5998 41.1C17.0998 43.1 16.6998 45.1 16.2998 47.1C19.1998 47 22.0998 47.2 24.9998 47.7C25.5998 45.7 26.1998 43.7 26.7998 41.8Z" fill="#DC0034"/>
<path fill-rule="evenodd" clip-rule="evenodd" d="M71.3004 39.2C65.6004 39.1 59.3004 38.7 56.5004 38.2C57.0004 36.1 57.3004 34 57.6004 31.8C60.2004 32.3 65.9004 32.6 71.3004 32.6C71.4004 33.6 71.4004 34.6 71.4004 35.6C71.4004 36.9 71.4004 38.1 71.3004 39.2ZM49.3004 29.8C46.3004 29 43.4004 28.1 40.4004 27.3C40.2004 29.2 39.9004 31 39.5004 32.9C42.4004 33.8 45.3004 34.9 48.2004 35.9C48.7004 33.8 49.1004 31.9 49.3004 29.8ZM30.7004 25.2C27.2004 24.7 23.9004 24.4 20.4004 24.4C20.3004 26.2 20.2004 27.8 19.9004 29.6C23.3004 29.6 26.6004 29.9 30.0004 30.5C30.3004 28.8 30.5004 27 30.7004 25.2Z" fill="#0098AF"/>
<path fill-rule="evenodd" clip-rule="evenodd" d="M20.0004 16.7C20.2004 18.4 20.3004 20 20.4004 21.7C15.0004 21.8 10.7004 22.2 5.40039 23.4C5.10039 22.9 4.40039 18.7 4.40039 18.7C9.60039 17.5 14.5004 16.9 20.0004 16.7ZM40.5004 18.5C37.2004 17.9 33.9004 17.4 30.6004 17.1C30.8004 18.9 30.9004 20.6 30.8004 22.4C34.1004 22.8 37.3004 23.5 40.6004 24.2C40.7004 22.3 40.7004 20.4 40.5004 18.5ZM57.9004 21.6C55.1004 21.3 52.3004 20.8 49.6004 20.3C49.7004 22.4 49.7004 24.5 49.6004 26.6C52.3004 27.3 55.1004 27.9 57.9004 28.4C58.0004 26 58.0004 23.8 57.9004 21.6Z" fill="#009648"/>
<path fill-rule="evenodd" clip-rule="evenodd" d="M25.6998 40C23.5998 39.7 21.6998 39.6 19.5998 39.5C20.2998 36.7 20.8998 33.9 21.3998 31.1C23.5998 31.2 25.6998 31.4 27.8998 31.7C27.3998 34.5 26.5998 37.2 25.6998 40ZM15.6998 63.5L21.5998 63.9C21.1998 58.7 21.6998 54.8 23.0998 49.1C21.1998 48.9 19.3998 48.8 17.4998 48.7C16.2998 54.5 15.1998 57.2 15.6998 63.5ZM38.6998 16.6C37.8998 10.5 36.2998 5.4 33.7998 0C31.6998 0.1 29.5998 0.4 27.5998 0.9C29.8998 5.7 31.3998 10.3 32.1998 15.8C34.3998 16 36.4998 16.3 38.6998 16.6ZM37.5998 33.8C38.2998 30.9 38.6998 28.3 38.8998 25.3C36.7998 24.8 34.6998 24.4 32.4998 24C32.2998 26.8 31.9998 29.4 31.3998 32.2C33.4998 32.7 35.4998 33.2 37.5998 33.8ZM43.2998 45.6C44.5998 42.7 45.5998 40 46.3998 36.9C44.4998 36.2 42.5998 35.5 40.7998 34.8C39.9998 37.7 39.0998 40.3 37.8998 43.1C39.7998 44 41.4998 44.8 43.2998 45.6ZM30.7998 68.9L36.5998 70C37.3998 65.7 38.8998 57 39.7998 54C37.9998 53.3 36.1998 52.5 34.3998 51.8C33.3998 54.9 31.8998 63.3 30.7998 68.9ZM56.3998 19.6C55.9998 14.8 55.1998 10.6 53.8998 6C52.0998 6 50.1998 5.9 48.3998 5.8C49.6998 10.2 50.5998 14.2 50.9998 18.8C52.7998 19.1 54.5998 19.3 56.3998 19.6ZM48.7998 57.1C49.6998 54.3 50.6998 51.5 51.6998 48.8C49.7998 48.3 47.9998 47.7 46.0998 47C44.8998 49.8 43.6998 52.3 42.7998 55.3C44.8998 55.9 46.7998 56.5 48.7998 57.1ZM64.3998 30.7C64.5998 27.1 64.5998 23.7 64.3998 20.1C62.6998 20.1 60.9998 20 59.2998 19.9C59.4998 23.4 59.4998 26.7 59.1998 30.2C60.9998 30.5 62.6998 30.6 64.3998 30.7ZM60.7998 50.2C61.5998 47.1 62.3998 44 63.0998 40.9C61.2998 40.8 59.4998 40.6 57.6998 40.3C56.8998 43.4 55.9998 46.4 54.9998 49.5C56.8998 49.8 58.7998 50 60.7998 50.2ZM50.5998 67.4C53.0998 66.5 54.8998 65.8 56.6998 64.5C56.8998 62.7 57.3998 61.1 58.3998 58.7C56.2998 58.5 54.1998 58.2 52.0998 57.8C50.8998 60.9 50.6998 63.6 50.5998 67.4ZM17.8998 15.4C17.2998 12.1 16.4998 9.3 15.2998 6.4C13.1998 7.9 11.2998 9.6 9.4998 11.4C9.9998 12.9 10.3998 14.5 10.6998 16.1C13.0998 15.8 15.4998 15.6 17.8998 15.4ZM54.6998 39.5C55.4998 36.2 55.9998 33.1 56.2998 29.7C54.4998 29.3 52.6998 28.9 50.8998 28.5C50.5998 31.8 50.0998 34.7 49.2998 37.9C51.0998 38.6 52.8998 39.1 54.6998 39.5ZM31.4998 50.8C32.4998 47.8 33.5998 45 34.7998 42.1C32.8998 41.5 30.9998 41 28.8998 40.6C27.8998 43.6 26.8998 46.5 25.9998 49.5C27.8998 49.8 29.6998 50.3 31.4998 50.8ZM28.9998 23.6C29.0998 20.9 28.9998 18.2 28.5998 15.5C26.2998 15.4 23.9998 15.3 21.6998 15.3C22.0998 17.9 22.2998 20.5 22.1998 23.1C24.4998 23.2 26.6998 23.4 28.9998 23.6ZM47.9998 27.8C48.1998 24.6 48.1998 21.6 47.8998 18.4C45.9998 18 43.9998 17.6 41.9998 17.3C42.2998 20.3 42.3998 23.2 42.1998 26.2C44.0998 26.7 45.9998 27.2 47.9998 27.8ZM17.8998 31.1C18.2998 28.4 18.4998 25.9 18.4998 23.2C16.0998 23.3 13.8998 23.4 11.4998 23.7C11.5998 26.4 11.3998 28.9 11.1998 31.6C13.3998 31.3 15.5998 31.1 17.8998 31.1ZM14.3998 48.7C14.9998 45.6 15.5998 42.6 16.2998 39.6C14.1998 39.7 12.1998 39.9 10.0998 40.2C9.5998 43.3 9.1998 46.3 8.7998 49.4C10.5998 49 12.4998 48.8 14.3998 48.7ZM92.4998 33.3L91.5998 30.8C91.0998 31.1 90.5998 31.3 89.6998 31.3C87.2998 31.3 86.3998 28.6 86.3998 25.8C86.3998 23 87.1998 20.2 89.6998 20.2C90.5998 20.2 91.1998 20.4 91.5998 20.7L92.3998 18.4C91.5998 17.8 90.4998 17.5 88.8998 17.5C84.4998 17.5 82.4998 21.6 82.4998 25.9C82.4998 30.3 84.4998 34.3 88.8998 34.3C90.4998 34.3 91.5998 34 92.4998 33.3ZM105.6 25.9C105.6 21.3 103.8 17.5 99.1998 17.5C94.5998 17.5 92.7998 21.3 92.7998 25.9C92.7998 30.5 94.5998 34.3 99.1998 34.3C103.8 34.3 105.6 30.5 105.6 25.9ZM96.6998 25.8C96.6998 23 97.0998 20.1 99.1998 20.1C101.2 20.1 101.7 23 101.7 25.8C101.7 28.6 101.3 31.5 99.1998 31.5C97.0998 31.5 96.6998 28.6 96.6998 25.8ZM110.8 34.1L105.9 17.8H110L112.3 27.3C112.5 28.2 112.7 29.3 112.7 29.3C112.7 29.3 112.9 28.2 113.1 27.3L115.4 17.8H119.1L114.2 34.1H110.8ZM124 34.1H120.2V17.8H124V34.1ZM134.6 34.1H126.6V17.8H130.4V31.5H134.5V34.1H134.6ZM144.3 17.8H148.2V34.1H144.3V27H140.2V34.1H136.3V17.8H140.2V24.5H144.3V17.8ZM158.2 17.8H154.5L149.2 34.1H152.6L153.6 30.6H158.5L159.5 34.1H163.5L158.2 17.8ZM154.2 28.4L155.7 23.1C156 21.9 156.1 21.1 156.1 21.1C156.1 21.1 156.2 21.9 156.5 23.1L157.9 28.4H154.2ZM153.8 16.2H153.4L153.5 15.8C153.6 15.3 153.8 14.8 153.9 14.3L154 14H154.3C156 14.1 157.7 13.9 159.3 13.5L159.7 13.4V13.8C159.7 14.3 159.7 14.8 159.7 15.3C159.7 15.3 159.7 15.3 159.7 15.4V15.6L159.5 15.7C157.5 16.2 155.7 16.4 153.8 16.2ZM104.6 45.6H104C104 45.5 102.5 40.2 102.5 40.2C102.4 39.8 102.3 39.4 102.3 39.4C102.3 39.4 102.3 39.8 102.2 40.2C102.2 40.2 101.7 45.5 101.6 45.6H100.8L101.7 38.4H102.7L104.1 43.6C104.2 44.1 104.3 44.4 104.3 44.4C104.3 44.4 104.4 44.1 104.5 43.6L106 38.4H107L107.9 45.6H107C107 45.5 106.5 40.2 106.5 40.2C106.5 39.8 106.4 39.4 106.4 39.4C106.4 39.4 106.3 39.8 106.2 40.2C106.1 40.3 104.7 45.5 104.6 45.6ZM113.6 43.6C113.6 44.8 112.7 45.8 111.4 45.8C110 45.8 109.2 44.9 109.2 43.6V38.5H110.2V43.6C110.2 44.5 110.8 45 111.5 45C112.2 45 112.8 44.5 112.8 43.6V38.5H113.7V43.6H113.6ZM119.5 38.5H120.3V45.7H119.5L116.5 40.5C116.2 40.1 116 39.6 116 39.6C116 39.6 116 40 116 40.5V45.7H115.2V38.5H116.2L119.1 43.5C119.4 43.9 119.5 44.3 119.5 44.3C119.5 44.3 119.5 44 119.5 43.5V38.5ZM121.9 45.6V38.4H122.9V45.6H121.9ZM128.1 44.7L128.4 45.3C128.1 45.5 127.6 45.7 127 45.7C125.3 45.7 124.3 44 124.3 42C124.3 40 125.3 38.3 127 38.3C127.6 38.3 128.1 38.5 128.4 38.7L128.2 39.3C128 39.2 127.6 39 127.2 39C125.8 39 125.4 40.5 125.4 42C125.4 43.6 125.9 45 127.2 45C127.6 45 127.9 44.9 128.1 44.7ZM130 37.9H129.5L130.2 36.5C130.6 36.3 131.1 36.3 131.2 36.5L130 37.9ZM129.5 38.5H130.5V45.7H129.5V38.5ZM136.4 40.5C136.4 39.2 135.6 38.3 134 38.3C133.2 38.3 132.6 38.5 132.2 38.7V45.6H133.1V42.6H133.4C135.5 42.9 136.4 41.8 136.4 40.5ZM133.4 42.1H133.1V39.1C133.2 39 133.5 39 133.9 39C135 39 135.5 39.5 135.5 40.6C135.5 41.6 134.9 42.3 133.4 42.1ZM138.6 45.6H137.6V38.4H138.6V45.6ZM145.2 42.1C145.2 40.1 144.5 38.4 142.6 38.4C140.7 38.4 140 40.1 140 42.1C140 44.1 140.7 45.8 142.6 45.8C144.4 45.7 145.2 44.1 145.2 42.1ZM142.6 45C141.2 45 141 43.4 141 42C141 40.6 141.3 39 142.6 39C143.9 39 144.2 40.6 144.2 42C144.2 43.5 143.9 45 142.6 45ZM89.8998 49.4L87.4998 56.4H88.3998L89.0998 54.3H91.4998L92.1998 56.4H93.1998L90.7998 49.4H89.8998ZM89.2998 53.7L90.0998 51C90.2998 50.4 90.2998 50.2 90.2998 50.2C90.2998 50.2 90.2998 50.5 90.4998 51L91.2998 53.7H89.2998ZM96.0998 49.4H99.7998V50H98.3998V56.4H97.4998V50H96.0998V49.4ZM100.5 49.4H103.8V50H101.5V52.5H103.6V53.1H101.5V55.8H103.8V56.4H100.5V49.4ZM108 55.5L108.2 56.1C107.9 56.3 107.4 56.5 106.8 56.5C105.1 56.5 104.2 54.9 104.2 52.9C104.2 50.9 105.1 49.3 106.8 49.3C107.4 49.3 107.9 49.5 108.2 49.7L108 50.3C107.8 50.2 107.5 50 107 50C105.6 50 105.2 51.5 105.2 53C105.2 54.5 105.7 55.9 107 55.9C107.4 55.8 107.7 55.7 108 55.5ZM108.9 49.4H112.2V50H109.9V52.5H112V53.1H109.9V55.8H112.2V56.4H108.9V49.4ZM115 53.3C116.3 53.3 117.1 52.6 117.1 51.4C117.1 50.1 116.3 49.3 114.7 49.3C113.9 49.3 113.3 49.5 113 49.7V56.5H113.9V53.2L116.2 56.5H117.3L115 53.3ZM113.9 52.9V50C114.1 49.9 114.3 49.8 114.7 49.8C115.7 49.8 116.2 50.3 116.2 51.4C116.2 52.4 115.6 53 114.5 53C114.3 53 114 52.9 113.9 52.9ZM123.2 49.3C121.4 49.3 120.7 50.9 120.7 52.9C120.7 54.9 121.4 56.5 123.2 56.5C125 56.5 125.7 54.9 125.7 52.9C125.8 50.9 125.1 49.3 123.2 49.3ZM123.2 55.8C121.9 55.8 121.6 54.3 121.6 52.8C121.6 51.4 121.9 49.8 123.2 49.8C124.5 49.8 124.8 51.3 124.8 52.8C124.8 54.3 124.6 55.8 123.2 55.8ZM129.5 49.4H132.8V50H130.5V52.5H132.6V53.1H130.5V56.4H129.6V49.4H129.5ZM137.1 49.4H138V54.4C138 55.6 137.1 56.5 135.8 56.5C134.5 56.5 133.6 55.6 133.6 54.4V49.4H134.5V54.4C134.5 55.3 135.1 55.8 135.8 55.8C136.5 55.8 137.1 55.3 137.1 54.4V49.4ZM138.6 49.4H142.3V50H140.9V56.4H140V50H138.6V49.4ZM146.5 49.4H147.4V54.4C147.4 55.6 146.6 56.5 145.2 56.5C143.9 56.5 143 55.6 143 54.4V49.4H143.9V54.4C143.9 55.3 144.5 55.8 145.2 55.8C145.9 55.8 146.5 55.3 146.5 54.4V49.4ZM150.6 53.3C151.9 53.3 152.7 52.6 152.7 51.4C152.7 50.1 151.9 49.3 150.3 49.3C149.5 49.3 148.9 49.5 148.6 49.7V56.5H149.5V53.2L151.8 56.5H152.9L150.6 53.3ZM149.5 52.9V50C149.7 49.9 150 49.8 150.3 49.8C151.3 49.8 151.8 50.3 151.8 51.4C151.8 52.4 151.2 53 150.1 53C149.8 53 149.6 52.9 149.5 52.9ZM155.9 49.3C154.1 49.3 153.4 50.9 153.4 52.9C153.4 54.9 154.1 56.5 155.9 56.5C157.7 56.5 158.4 54.9 158.4 52.9C158.4 50.9 157.7 49.3 155.9 49.3ZM155.9 55.8C154.6 55.8 154.3 54.3 154.3 52.8C154.3 51.4 154.6 49.8 155.9 49.8C157.2 49.8 157.5 51.3 157.5 52.8C157.5 54.3 157.2 55.8 155.9 55.8Z" fill="#1A171B"/>
</svg>
