<svg width="40" height="50" viewBox="0 0 40 50" fill="none" xmlns="http://www.w3.org/2000/svg">
<path d="M32.4636 31.7908L22.8365 23.0302L22 22.269V23.4V49.5H18V24.4V23.2602L17.1614 24.0321L8.73449 31.7887L6.0059 28.7391L14.2335 21.3725L15.208 20.5H13.9H1V16.6H14.5H15.8006L14.8349 15.7288L6.00959 7.76676L8.73166 4.80451L17.1637 12.47L18 13.2303V12.1V0.5H22V13.2V14.331L22.8365 13.5698L32.4685 4.80469L35.1902 7.76654L26.4653 15.6286L25.4982 16.5H26.8H39V20.4H27.2H25.8933L26.8662 21.2723L35.1943 28.7388L32.4636 31.7908Z" fill="#E63737" stroke="#8C201A"/>
</svg>
