<svg width="86" height="103" viewBox="0 0 86 103" fill="none" xmlns="http://www.w3.org/2000/svg">
<path d="M35.7955 9.08986C36.3407 10.8485 36.764 12.5598 37.0963 14.3643C33.3117 14.1197 29.67 14.0548 25.8757 14.1939C25.5157 12.5223 25.0737 10.9456 24.5115 9.3245C28.3107 9.0677 31.9914 9.00197 35.7955 9.08986Z" fill="#9FC22A"/>
<path d="M56.2032 10.6673C56.7118 12.7707 57.0913 14.8205 57.3667 16.9621C54.1516 16.4737 50.9439 15.954 47.719 15.4992C47.4135 13.5289 47.0097 11.6525 46.4824 9.72266C49.7276 10.0108 52.9637 10.3517 56.2032 10.6673Z" fill="#9FC22A"/>
<path d="M76.0096 18.2477C72.7173 18.4548 69.6452 18.3677 66.3359 18.0902C66.0792 15.8004 65.7119 13.6007 65.2139 11.346C67.0664 11.4186 68.8547 11.4431 70.6454 11.3949C72.7084 13.4639 74.5129 15.7621 76.0096 18.2477Z" fill="#9FC22A"/>
<path d="M46.2344 35.9382C45.6689 37.7863 45.0214 39.5243 44.2666 41.3112C41.0531 40.2428 37.9973 39.4861 34.6409 38.9251C35.2372 37.1343 35.7889 35.3612 36.2667 33.5406C39.732 34.1215 42.8975 34.8965 46.2344 35.9382Z" fill="#0072B6"/>
<path d="M25.6564 32.6472C25.3095 34.4822 24.9065 36.2952 24.4775 38.115C17.6598 38.1876 11.6262 39.1116 5.4926 40.9773C5.23098 39.2851 5.09204 37.5547 5.09204 35.7953C5.09204 35.7326 5.09367 35.6707 5.09448 35.6081C11.7741 33.6193 18.283 32.6678 25.6564 32.6472Z" fill="#0072B6"/>
<path d="M64.1991 41.6781C63.6133 43.6982 62.9544 45.6533 62.232 47.6321C59.0901 46.9518 56.2805 46.0973 53.3035 44.9348C54.1428 43.0355 54.8497 41.1768 55.4737 39.2041C58.406 40.2298 61.1392 41.0453 64.1991 41.6781Z" fill="#0072B6"/>
<path d="M39.5004 53.0265C38.874 55.058 38.3792 57.0414 37.9802 59.1241C35.0739 58.3453 32.3293 57.7499 29.3352 57.3501C29.7106 55.1994 30.1745 53.122 30.7368 51.0087C33.7999 51.4658 36.5543 52.117 39.5004 53.0265Z" fill="#ED771A"/>
<path d="M21.6443 50.4768C21.2299 52.6367 20.8838 54.7729 20.6116 56.9535C18.0035 57.0758 15.5903 57.3548 13.1813 57.8156C11.7269 56.0738 10.4415 54.2012 9.3479 52.2225C13.4738 51.1731 17.3161 50.6197 21.6443 50.4768Z" fill="#ED771A"/>
<path d="M58.2174 59.0125C57.725 60.7964 57.3382 62.5306 57.0433 64.3512C53.643 63.6748 50.4474 62.8317 47.1389 61.8511C47.4875 59.9213 47.9303 58.0885 48.5015 56.2075C51.7547 57.3494 54.8301 58.2688 58.2174 59.0125Z" fill="#ED771A"/>
<path d="M51.8546 47.8659C50.9739 49.6636 50.1825 51.3649 49.4667 53.2283C46.5067 52.0979 43.6638 50.8567 40.6445 49.8623C41.3733 47.9393 42.1834 46.1058 43.0333 44.2302C46.2264 45.3117 48.785 46.6255 51.8546 47.8659Z" fill="#DC0034"/>
<path d="M75.725 51.9839C75.1815 53.2764 73.9326 55.7817 72.9731 57.6291C68.2216 57.6168 63.8836 57.1544 59.1565 56.1478C59.7707 54.3128 60.4508 52.5098 61.1374 50.6984C66.1139 51.7371 70.6298 52.1261 75.725 51.9839Z" fill="#DC0034"/>
<path d="M33.5652 41.9082C32.899 43.8403 32.2408 45.7656 31.6347 47.7169C28.5358 47.2621 25.5182 47.0665 22.3933 47.123C22.8353 45.1335 23.3139 43.1571 23.7965 41.1783C27.1009 41.1599 30.2957 41.4007 33.5652 41.9082Z" fill="#DC0034"/>
<path d="M80.7219 39.3623C74.668 39.2583 68.0233 38.8968 65.0691 38.3297C65.5598 36.1866 65.9328 34.0939 66.205 31.9149C68.9528 32.3697 75.0442 32.6716 80.7723 32.7526C80.8617 33.7554 80.9096 34.7688 80.9096 35.7938C80.9096 36.9991 80.8462 38.1891 80.7219 39.3623Z" fill="#0098AF"/>
<path d="M57.4106 29.9331C57.1555 31.9974 56.798 33.9693 56.3105 35.997C53.2271 34.9958 50.1948 33.9334 47.0789 33.0063C47.5062 31.1361 47.8101 29.3239 48.014 27.42C51.169 28.2057 54.2768 29.0923 57.4106 29.9331Z" fill="#0098AF"/>
<path d="M37.6292 25.3832C37.4749 27.1816 37.2238 28.8998 36.8704 30.6722C33.2612 30.1158 29.8552 29.833 26.1965 29.7917C26.4452 28.0567 26.6166 26.3638 26.7003 24.6143C30.4329 24.635 33.9364 24.8856 37.6292 25.3832Z" fill="#0098AF"/>
<path d="M26.2812 16.8612C26.5152 18.5473 26.6403 20.1745 26.6745 21.875C20.9585 21.9377 16.3338 22.3833 10.7446 23.5267C10.4391 22.9955 9.63876 18.8499 9.64038 18.8476C15.2759 17.6576 20.5068 17.037 26.2812 16.8612Z" fill="#009648"/>
<path d="M48.0886 18.6138C48.2495 20.5513 48.2975 22.4162 48.2308 24.3576C44.7704 23.6001 41.3514 22.9719 37.8316 22.5355C37.8536 20.7378 37.7715 19.0166 37.5781 17.2266C41.1158 17.5423 44.5876 18.0276 48.0886 18.6138Z" fill="#009648"/>
<path d="M66.5739 21.7115C66.6795 23.9586 66.6641 26.1323 66.5317 28.377C63.5555 27.9291 60.6703 27.3062 57.755 26.6168C57.868 24.5074 57.8606 22.4735 57.7363 20.3641C60.6751 20.8953 63.5977 21.3791 66.5739 21.7115Z" fill="#009648"/>
<path d="M32.3977 40.1312C30.2202 39.8507 28.1126 39.6879 25.9148 39.629C26.6371 36.8386 27.3212 34.0641 27.8372 31.2286C30.1821 31.3142 32.4392 31.5037 34.7613 31.8102C34.1251 34.645 33.2915 37.3682 32.3977 40.1312Z" fill="white"/>
<path d="M21.7491 63.5563C21.2218 57.2546 22.356 54.5773 23.6235 48.8007C25.6434 48.8182 27.5755 48.9367 29.58 49.1668C28.0232 54.9067 27.5349 58.7679 27.9664 63.9484L21.7491 63.5563Z" fill="white"/>
<path d="M46.1143 16.7626C43.8296 16.4355 41.5619 16.1566 39.2625 15.9364C38.4329 10.4801 36.8819 5.81708 34.4021 1.05777C36.5219 0.593835 38.7108 0.298815 40.9509 0.186462C43.6573 5.53963 45.3018 10.7063 46.1143 16.7626Z" fill="white"/>
<path d="M44.976 33.9502C42.792 33.3357 40.6478 32.8252 38.4126 32.3995C39.0642 29.6426 39.4599 27.0692 39.6248 24.249C41.8999 24.599 44.1188 25.0224 46.3637 25.5131C46.1525 28.4358 45.7129 31.1032 44.976 33.9502Z" fill="white"/>
<path d="M51.0697 45.7519C49.1042 44.8974 47.311 44.0673 45.2871 43.3122C46.566 40.5256 47.5451 37.9751 48.3551 35.0325C50.3693 35.6906 52.3534 36.3991 54.3497 37.0969C53.4909 40.1442 52.4526 42.8819 51.0697 45.7519Z" fill="white"/>
<path d="M37.7788 68.9636C38.9675 63.4186 40.5551 54.9578 41.5732 51.9717C43.5183 52.6519 45.4204 53.4002 47.3419 54.1331C46.3393 57.1093 44.7428 65.8078 43.9059 70.062L37.7788 68.9636Z" fill="white"/>
<path d="M64.9668 19.7113C63.029 19.485 61.1123 19.2053 59.1859 18.898C58.748 14.3527 57.8826 10.3004 56.4551 5.93701C58.4018 6.03484 60.3388 6.11509 62.2888 6.15484C63.7075 10.7238 64.5565 14.9688 64.9668 19.7113Z" fill="white"/>
<path d="M56.9214 57.1506C54.761 56.6133 52.7054 55.9942 50.6067 55.272C51.6239 52.3432 52.8305 49.834 54.1289 47.0305C56.0919 47.7413 58.0102 48.3245 60.0439 48.8274C58.9438 51.6056 57.8355 54.3097 56.9214 57.1506Z" fill="white"/>
<path d="M73.4533 30.809C71.5789 30.7448 69.7808 30.5889 67.9226 30.3459C68.2216 26.8492 68.2411 23.5665 67.9795 20.0652C69.8027 20.2066 71.5781 20.2815 73.407 20.2731C73.6906 23.8531 73.7036 27.2306 73.4533 30.809Z" fill="white"/>
<path d="M69.5608 50.2712C67.4458 50.1114 65.4251 49.8554 63.3411 49.4786C64.4331 46.4229 65.4089 43.4697 66.2116 40.3284C68.1478 40.6486 70.0166 40.8603 71.9788 40.975C71.2971 44.1308 70.4651 47.1727 69.5608 50.2712Z" fill="white"/>
<path d="M58.7932 67.5123C58.8672 63.6839 59.0922 60.9515 60.432 57.9669C62.6786 58.3865 64.8618 58.6846 67.14 58.8841C66.0123 61.2679 65.5297 62.8783 65.2973 64.6339C63.3603 65.9615 61.4257 66.641 58.7932 67.5123Z" fill="white"/>
<path d="M24.0721 15.5902C21.5054 15.7338 19.0094 15.9723 16.4622 16.3162C16.1039 14.6539 15.6765 13.1031 15.1565 11.599C16.9927 9.72949 19.0386 8.0465 21.2592 6.58057C22.5633 9.48568 23.4521 12.3388 24.0721 15.5902Z" fill="white"/>
<path d="M63.1524 39.6665C61.2113 39.2209 59.3596 38.6951 57.4673 38.0913C58.3318 34.9332 58.877 31.947 59.1865 28.698C61.0902 29.1589 62.976 29.5762 64.9033 29.9285C64.575 33.2892 64.0112 36.3922 63.1524 39.6665Z" fill="white"/>
<path d="M38.5239 50.9377C36.6015 50.3805 34.7328 49.938 32.7576 49.5811C33.6757 46.5781 34.7458 43.6829 35.8109 40.7312C37.9373 41.1416 39.9547 41.6392 42.0209 42.2636C40.7705 45.1779 39.5558 47.934 38.5239 50.9377Z" fill="white"/>
<path d="M35.8589 23.7568C33.4515 23.4992 31.1001 23.3425 28.6764 23.2837C28.7325 20.6499 28.5537 18.1162 28.1174 15.5016C30.5769 15.4771 32.9859 15.5398 35.4389 15.685C35.8386 18.4006 35.9784 21.0298 35.8589 23.7568Z" fill="white"/>
<path d="M56.0058 27.8978C53.9534 27.3689 51.9035 26.8308 49.843 26.3241C50.0559 23.2745 49.9957 20.4428 49.6675 17.407C51.7662 17.7486 53.8592 18.1124 55.953 18.4709C56.2487 21.6848 56.2691 24.6816 56.0058 27.8978Z" fill="white"/>
<path d="M24.0485 31.2018C21.6524 31.2546 19.3425 31.4159 16.9626 31.6956C17.2324 29.0404 17.3738 26.4968 17.3128 23.8294C19.8007 23.539 22.2244 23.3632 24.7285 23.2913C24.6985 25.9924 24.4547 28.5283 24.0485 31.2018Z" fill="white"/>
<path d="M20.3896 48.8213C18.3324 48.9352 16.3669 49.1469 14.3357 49.4725C14.7606 46.387 15.2676 43.3237 15.7641 40.2519C17.9814 39.9531 20.1288 39.7704 22.3656 39.6932C21.6831 42.7336 20.9876 45.7603 20.3896 48.8213Z" fill="white"/>
<path d="M10.6105 90.1379L9.68014 87.6776C9.12683 87.9841 8.64908 88.1744 7.69357 88.1744C5.1797 88.1744 4.19901 85.4787 4.19901 82.7112C4.19901 79.9207 5.05376 77.1287 7.71876 77.1287C8.67426 77.1287 9.27795 77.3405 9.7557 77.6248L10.5853 75.3066C9.73051 74.7158 8.52314 74.3612 6.83964 74.3612C2.18725 74.362 0 78.4074 0 82.7357C0 87.135 2.13769 91.1078 6.81363 91.1078C8.47357 91.1078 9.73133 90.7769 10.6105 90.1379ZM24.4823 82.7357C24.4823 78.1468 22.5461 74.362 17.719 74.362C12.892 74.362 10.9558 78.1468 10.9558 82.7357C10.9558 87.3475 12.892 91.1078 17.719 91.1078C22.5461 91.1078 24.4823 87.3475 24.4823 82.7357ZM20.3345 82.5935C20.3345 85.384 19.9575 88.2921 17.719 88.2921C15.5058 88.2921 15.1044 85.384 15.1044 82.5935C15.1044 79.826 15.531 76.8926 17.719 76.8926C19.8811 76.8926 20.3345 79.826 20.3345 82.5935ZM38.8075 74.5981H34.8856L32.3969 84.0602C32.1702 84.9346 31.9947 86.0466 31.9947 86.0466H31.9695C31.9695 86.0466 31.7932 84.9346 31.5665 84.0602L29.1525 74.5981H24.8276L30.0577 90.8709H33.6026L38.8075 74.5981ZM44.0814 90.8709V74.5981H40.0076V90.8709H44.0814ZM55.3126 90.8709V88.2921H50.9129V74.5981H46.8399V90.8709H55.3126ZM69.6638 90.8709V74.5981H65.5648V81.3156H61.1903V74.5981H57.0912V90.8709H61.1903V83.8233H65.5648V90.8709H69.6638ZM86 90.8709L80.3937 74.5981H76.4206L70.7875 90.8709H74.4324L75.5399 87.3941H80.7439L81.8002 90.8709H86ZM80.1914 85.1952H76.1435L77.7531 79.897C78.1049 78.7376 78.2057 77.9343 78.2057 77.9343H78.2561C78.2561 77.9343 78.3316 78.7621 78.6574 79.897L80.1914 85.1952Z" fill="white"/>
<path d="M75.3237 72.6782C75.4578 72.1608 75.6105 71.6471 75.769 71.1351L75.8454 70.889L76.1167 70.9042C77.9473 70.996 79.6763 70.853 81.4516 70.4304L81.8457 70.3364L81.8782 70.7185C81.9204 71.2237 81.9253 71.7335 81.8912 72.2402C81.8896 72.2578 81.8871 72.2769 81.8863 72.2953L81.8676 72.5299L81.6247 72.5857C79.6284 73.0481 77.6914 73.1972 75.6357 73.0772L75.2246 73.0535L75.3237 72.6782Z" fill="white"/>
<path d="M26.9366 102.432L26.0315 95.2885H24.9614L23.3941 100.458C23.2503 100.926 23.1951 101.257 23.1951 101.257H23.1739C23.1739 101.257 23.1187 100.926 22.9749 100.448L21.4514 95.2885H20.3814L19.4771 102.432H20.3489C20.3602 102.327 20.9452 97.0739 20.9452 97.0739C20.9899 96.6482 20.9997 96.2439 20.9997 96.2439H21.0216C21.0216 96.2439 21.1102 96.6474 21.2312 97.0739C21.2312 97.0739 22.788 102.327 22.8205 102.432H23.4941C23.5379 102.307 25.1052 97.0838 25.1052 97.0838C25.2377 96.6375 25.3149 96.2439 25.3149 96.2439H25.336C25.336 96.2439 25.3474 96.6383 25.3912 97.0838C25.3912 97.0838 25.9657 102.337 25.9754 102.432H26.9366ZM33.0068 100.396V95.2893H32.0789V100.386C32.0789 101.29 31.4281 101.798 30.6888 101.798C29.938 101.798 29.2872 101.29 29.2872 100.386V95.2893H28.2716V100.396C28.2716 101.612 29.1873 102.546 30.6335 102.546C32.0911 102.546 33.0068 101.612 33.0068 100.396ZM40.1479 102.432V95.2885H39.298V100.273C39.298 100.718 39.3305 101.061 39.3305 101.061H39.3086C39.3086 101.061 39.1542 100.739 38.8788 100.302L35.7766 95.2885H34.7066V102.432H35.5556V97.2413C35.5556 96.7942 35.5223 96.3578 35.5223 96.3578H35.5443C35.5443 96.3578 35.7539 96.7735 36.0301 97.2184L39.2639 102.43H40.1463V102.432H40.1479ZM42.895 102.432V95.2885H41.8793V102.432H42.895ZM48.7222 102.141L48.4573 101.539C48.1697 101.705 47.8618 101.818 47.3987 101.818C46.0077 101.818 45.4454 100.406 45.4454 98.8593C45.4454 97.3437 45.9524 95.8594 47.4092 95.8594C47.8837 95.8594 48.238 96.0047 48.4687 96.1392L48.7117 95.5797C48.3802 95.3496 47.9065 95.1846 47.2337 95.1846C45.4015 95.1846 44.3859 96.876 44.3859 98.8593C44.3859 100.885 45.4121 102.535 47.2337 102.535C47.8512 102.535 48.3923 102.38 48.7222 102.141ZM51.6919 93.338C51.5928 93.0881 51.0395 93.0988 50.6535 93.3265L49.8808 94.7481H50.4228L51.6919 93.338ZM50.9631 102.432V95.2885H49.9475V102.432H50.9631ZM57.1974 97.3445C57.1974 96.0887 56.393 95.1861 54.6047 95.1861C53.7995 95.1861 53.126 95.3519 52.7075 95.5812V102.432H53.7004V99.4631L54.0433 99.4945C56.2817 99.7016 57.1974 98.6117 57.1974 97.3445ZM56.2167 97.3338C56.2167 98.3717 55.6309 99.0573 54.0311 98.9121L53.7004 98.8807V95.8915C53.8548 95.8289 54.153 95.7563 54.5625 95.7563C55.7195 95.757 56.2167 96.2966 56.2167 97.3338ZM59.5488 102.432V95.2885H58.534V102.432H59.5488ZM66.5233 98.8609C66.5233 96.8362 65.7522 95.1861 63.7876 95.1861C61.8108 95.1861 61.0389 96.8355 61.0389 98.8609C61.0389 100.906 61.8108 102.536 63.7876 102.536C65.7522 102.535 66.5233 100.905 66.5233 98.8609ZM65.4971 98.8295C65.4971 100.273 65.2217 101.83 63.7876 101.83C62.3536 101.83 62.0659 100.273 62.0659 98.8295C62.0659 97.385 62.3966 95.8197 63.7876 95.8197C65.1664 95.8197 65.4971 97.3857 65.4971 98.8295Z" fill="white" stroke="white" stroke-width="0.216" stroke-miterlimit="22.9256"/>
</svg>
